<svg xmlns="http://www.w3.org/2000/svg" viewBox="0 0 100 100" width="100" height="100" role="img" aria-label="caixonho"><title>caixonho</title><defs><linearGradient id="clay" x1="0" y1="0" x2="1" y2="1"><stop offset="0" stop-color="#FFF0CC" stop-opacity=".66"/><stop offset=".44" stop-color="#FFF0CC" stop-opacity="0"/><stop offset=".66" stop-color="#5C3A05" stop-opacity="0"/><stop offset="1" stop-color="#0E3A47" stop-opacity=".30"/></linearGradient><linearGradient id="aq" x1="0" y1="0" x2="1" y2="1"><stop offset="0" stop-color="#D6F2F8" stop-opacity=".65"/><stop offset=".55" stop-color="#D6F2F8" stop-opacity="0"/><stop offset="1" stop-color="#0E3A47" stop-opacity=".34"/></linearGradient><linearGradient id="rim" x1="0" y1="0" x2="0" y2="1"><stop offset="0" stop-color="#FFC760"/><stop offset="1" stop-color="#F5A81C"/></linearGradient></defs><g transform="translate(50 50) scale(1.22) rotate(-4) translate(-50 -51)"><path d="M21,44 A29,32 0 0 1 79,44" fill="none" stroke="#3AAFC9" stroke-width="7.5" stroke-linecap="round"/><path d="M21,44 A29,32 0 0 1 79,44" fill="none" stroke="url(#aq)" stroke-width="7.5" stroke-linecap="round"/><path d="M19,44 L81,44 L71,82 a10,10 0 0 1 -9.9,8.4 h-22.2 A10,10 0 0 1 29,82 Z" fill="#F5A81C"/><path d="M19,44 L81,44 L71,82 a10,10 0 0 1 -9.9,8.4 h-22.2 A10,10 0 0 1 29,82 Z" fill="url(#clay)"/><ellipse cx="50" cy="44" rx="31" ry="8.5" fill="url(#rim)"/><ellipse cx="50" cy="44.5" rx="24" ry="5.6" fill="#3AAFC9"/><ellipse cx="50" cy="44.5" rx="24" ry="5.6" fill="url(#aq)"/></g></svg>
